<?xml version="1.0" standalone="no"?>
<!DOCTYPE svg PUBLIC "-//W3C//DTD SVG 20010904//EN"
 "http://www.w3.org/TR/2001/REC-SVG-20010904/DTD/svg10.dtd">
<svg version="1.0" xmlns="http://www.w3.org/2000/svg"
 width="10pt" height="10pt" viewBox="0 0 323.000000 512.000000"
 preserveAspectRatio="xMidYMid meet">

<g transform="translate(0.000000,512.000000) scale(0.100000,-0.100000)"
fill="#C55A11" stroke="none">
<path d="M2381 4995 c-30 -9 -68 -24 -85 -35 -17 -10 -520 -509 -1118 -1107
-783 -784 -1092 -1099 -1103 -1126 -40 -98 -38 -203 5 -287 10 -19 513 -528
1117 -1131 1221 -1219 1126 -1135 1268 -1134 113 1 162 30 316 184 154 154
182 202 183 315 1 144 52 86 -922 1053 l-867 861 165 158 c91 87 479 471 863
853 791 788 763 755 761 901 0 115 -20 150 -182 313 -150 151 -197 182 -292
191 -34 4 -75 0 -109 -9z"/>
</g>
</svg>
